<?xml version="1.0" standalone="no"?>
<!DOCTYPE svg PUBLIC "-//W3C//DTD SVG 20010904//EN"
 "http://www.w3.org/TR/2001/REC-SVG-20010904/DTD/svg10.dtd">
<svg version="1.0" xmlns="http://www.w3.org/2000/svg"
 width="736.000000pt" height="736.000000pt" viewBox="0 0 736.000000 736.000000"
 preserveAspectRatio="xMidYMid meet">

<g transform="translate(0.000000,736.000000) scale(0.100000,-0.100000)"
fill="#000000" stroke="none">
<path d="M1646 5629 c-6 -46 -3 -70 8 -58 7 8 13 109 6 109 -4 0 -10 -23 -14
-51z"/>
<path d="M1401 5593 c21 -50 39 -75 39 -56 0 19 -41 103 -50 103 -5 0 0 -21
11 -47z"/>
<path d="M1877 5549 c-15 -23 -27 -45 -25 -51 3 -9 68 73 68 86 0 16 -18 1
-43 -35z"/>
<path d="M1503 5501 c-100 -34 -170 -98 -221 -201 -24 -48 -27 -66 -27 -150 1
-104 2 -108 82 -237 28 -46 47 -89 50 -115 10 -91 11 -92 146 -122 67 -15 135
-31 150 -36 23 -8 29 -6 34 8 3 9 11 31 18 47 7 17 18 48 25 70 8 24 39 67 82
112 97 102 123 162 123 278 0 76 -4 99 -26 146 -80 170 -271 258 -436 200z
m213 -18 c68 -22 129 -66 169 -121 52 -71 68 -129 63 -226 -6 -103 -33 -160
-125 -256 -48 -52 -71 -85 -83 -123 l-17 -52 -50 -3 -49 -3 4 38 c2 21 12 89
24 151 20 109 21 113 52 126 17 7 37 20 44 28 18 22 4 48 -24 48 -18 0 -29 -9
-41 -36 -16 -34 -19 -35 -58 -29 -81 12 -95 17 -95 31 0 23 -47 65 -64 58 -27
-11 -18 -44 18 -65 19 -11 35 -30 37 -42 2 -12 3 -84 1 -161 l-3 -138 -37 7
c-68 12 -72 14 -72 49 0 46 -17 91 -61 162 -65 103 -82 151 -82 230 0 181 157
344 334 344 36 0 88 -7 115 -17z m-216 -402 c15 -28 12 -33 -10 -19 -21 13
-27 38 -10 38 5 0 14 -9 20 -19z m240 -14 c0 -17 -20 -37 -37 -37 -18 0 -16
15 3 34 19 19 34 21 34 3z m-82 -62 c1 -1 -4 -31 -12 -66 -8 -35 -20 -103 -27
-151 l-12 -88 -33 0 c-18 0 -35 4 -38 8 -2 4 -2 77 1 160 l6 153 56 -7 c31 -3
57 -8 59 -9z"/>
<path d="M1180 5462 c0 -9 83 -72 95 -72 13 0 -8 21 -51 50 -24 17 -44 27 -44
22z"/>
<path d="M2033 5360 c-24 -11 -43 -24 -43 -29 0 -11 99 30 100 42 0 10 -9 8
-57 -13z"/>
<path d="M2353 5346 c-90 -29 -165 -96 -199 -180 l-19 -47 -58 3 c-73 4 -75
-8 -2 -17 l55 -7 0 -414 0 -413 -24 -36 c-14 -20 -35 -70 -47 -112 -13 -42
-33 -88 -46 -104 -13 -15 -19 -30 -14 -33 18 -11 58 12 95 55 l37 43 -3 -164
-3 -164 -60 -16 c-115 -29 -170 -80 -200 -185 -15 -49 -17 -83 -11 -195 3 -74
10 -261 15 -415 7 -194 14 -294 24 -327 l15 -47 -64 -3 -64 -3 78 -115 78
-115 200 -5 199 -5 5 -230 6 -230 2 227 c1 141 6 229 12 233 6 4 110 42 232
86 l222 79 31 -27 c16 -15 54 -50 83 -77 l52 -50 0 -408 c0 -265 3 -408 10
-408 6 0 10 45 10 115 l0 115 56 0 c46 0 62 -5 86 -26 35 -29 121 -74 141 -74
8 0 20 19 27 45 15 54 19 57 59 49 30 -6 31 -8 31 -60 l0 -54 49 0 c51 0 176
34 186 50 3 5 -3 27 -15 49 -26 51 -25 55 6 76 26 17 27 16 66 -22 l40 -38 40
45 c38 42 88 131 88 157 0 6 -22 19 -50 28 -51 17 -54 22 -44 63 6 19 13 22
60 22 l54 0 0 49 c0 50 -33 176 -49 186 -5 3 -30 -4 -56 -15 -26 -11 -48 -20
-50 -20 -1 0 -10 12 -20 26 -17 26 -16 27 21 65 l38 39 -33 34 c-35 36 -138
96 -164 96 -10 0 -22 -19 -32 -50 -16 -48 -17 -49 -48 -43 -18 3 -34 8 -36 10
-3 2 -4 26 -2 53 l2 50 -51 0 c-28 0 -71 -5 -95 -11 -48 -12 -46 -14 -118 78
l-18 23 304 0 305 0 7 -72 c4 -40 14 -97 21 -126 15 -58 53 -152 62 -152 2 0
35 17 73 37 38 20 70 35 71 32 2 -2 18 -23 36 -46 l32 -42 -61 -58 -61 -58 54
-50 c49 -46 178 -122 235 -139 20 -6 24 0 46 71 14 43 29 78 34 78 4 -1 29 -5
56 -9 l47 -8 0 -86 0 -85 80 7 c83 7 220 44 255 70 20 14 19 16 -18 84 l-37
70 47 35 48 34 56 -61 57 -61 32 30 c60 56 160 229 160 275 0 5 -34 20 -75 32
l-76 23 7 50 c3 28 8 53 11 58 2 4 40 7 84 7 l79 0 0 30 0 30 413 0 c465 0
479 2 566 70 35 28 59 58 83 107 l33 68 0 1115 0 1115 -33 67 c-38 79 -91 128
-171 160 l-56 23 -1790 2 c-1463 2 -1798 0 -1832 -11z m3550 -22 c60 -20 131
-84 165 -148 l27 -51 3 -1119 2 -1118 -23 -52 c-32 -69 -75 -116 -139 -152
l-53 -29 -1367 -3 -1368 -2 -62 77 c-34 43 -90 106 -125 140 l-63 62 38 3 c30
2 38 7 40 26 l3 22 1423 0 c1582 0 1474 -5 1549 68 71 69 67 1 67 1074 0 1060
3 1007 -58 1071 -15 16 -45 39 -67 50 l-40 22 -1700 3 c-1182 2 -1716 -1
-1752 -8 -65 -14 -126 -58 -155 -112 -23 -43 -23 -48 -26 -469 l-3 -426 -40
11 -40 10 3 421 c4 460 2 442 66 531 32 44 81 79 141 100 29 11 379 13 1772
14 1554 0 1740 -2 1782 -16z m-3423 -179 c26 -32 -13 -81 -47 -59 -35 22 -23
74 17 74 10 0 23 -7 30 -15z m255 -1 c14 -14 14 -19 2 -38 -19 -29 -53 -32
-67 -7 -24 45 28 81 65 45z m245 -3 c13 -25 13 -27 -6 -45 -35 -36 -87 0 -64
44 14 26 56 26 70 1z m3028 -1051 c2 -643 -1 -907 -9 -936 -15 -55 -63 -112
-113 -135 -39 -18 -101 -19 -1468 -19 -1136 0 -1428 3 -1428 13 1 6 18 92 38
190 l37 178 1102 -1 1102 0 27 24 c24 20 28 32 32 88 6 90 -14 133 -66 148
-28 7 -368 10 -1105 8 l-1065 -3 -26 -24 c-24 -23 -26 -31 -26 -108 l0 -83
-217 2 -218 3 -8 85 c-14 141 -61 197 -188 223 -61 13 -63 14 -39 26 14 7 35
25 47 39 15 17 23 22 23 13 0 -9 14 -2 35 19 91 89 77 272 -26 329 -32 18 -56
23 -113 23 -67 0 -72 2 -84 26 -9 19 -12 126 -12 399 l0 373 1883 -2 1882 -3
3 -895z m-3798 75 c0 -3 -9 -18 -21 -34 -11 -15 -26 -45 -34 -67 l-14 -39 -1
46 c0 35 6 52 25 73 22 24 45 34 45 21z m270 -186 c0 -73 -81 -188 -141 -203
-18 -4 -43 3 -80 22 l-54 27 -3 61 c-2 45 1 64 13 74 13 11 15 8 16 -16 1 -21
3 -24 6 -9 8 31 15 35 94 55 74 18 103 19 58 1 l-24 -10 26 0 c15 -1 37 8 50
19 34 28 39 25 39 -21z m-285 -238 c6 -20 4 -23 -10 -18 -9 4 -19 7 -21 7 -2
0 -4 17 -4 37 0 35 1 36 14 18 7 -11 17 -31 21 -44z m58 1 c15 -10 24 -22 20
-25 -10 -10 -53 -8 -53 2 0 5 -3 16 -6 25 -8 21 5 20 39 -2z m3032 -137 c22
-21 25 -33 25 -93 0 -54 -4 -75 -19 -93 l-19 -24 -791 -3 -791 -2 0 120 0 120
785 0 786 0 24 -25z m-2239 -199 c8 -20 -75 -409 -89 -418 -18 -12 -615 -10
-622 2 -5 9 50 296 76 393 l10 37 310 0 c259 0 311 -2 315 -14z m-712 -445
c11 -17 -26 -21 -195 -21 -144 0 -169 2 -169 15 0 13 27 15 179 15 99 0 182
-4 185 -9z m628 -6 c-1 -6 -31 -9 -70 -7 -37 1 -114 2 -172 1 -344 -4 -363 -4
-368 9 -3 10 60 12 305 10 199 -2 307 -7 305 -13z m-121 -27 c68 -23 123 -76
291 -282 95 -116 194 -238 220 -270 27 -32 45 -62 41 -66 -32 -29 -197 -140
-204 -138 -7 3 -82 71 -352 322 -60 56 -115 105 -123 109 -10 5 -45 -4 -97
-27 -189 -81 -467 -127 -580 -95 -54 15 -103 62 -121 116 -21 61 -20 63 9 63
66 0 115 55 115 128 0 26 5 42 15 46 8 3 81 15 162 26 160 22 283 43 378 65
75 17 201 19 246 3z m-815 -148 c-11 -69 -40 -98 -101 -103 l-30 -2 -3 61 -3
61 43 10 c24 6 56 11 72 12 28 1 28 0 22 -39z m2642 -201 c-12 -121 -129 -204
-252 -177 -69 15 -139 85 -154 153 -6 26 -8 54 -5 62 4 10 47 13 210 13 l206
0 -5 -51z m-1953 1 c4 -6 -7 -10 -27 -10 -25 0 -29 3 -18 10 19 13 37 13 45 0z
m296 -297 c-9 -16 -10 -14 -11 12 0 21 3 26 11 18 8 -8 8 -16 0 -30z m429 -39
c0 -4 -12 -26 -27 -50 -23 -36 -35 -45 -83 -58 -95 -27 -94 -19 10 58 69 51
100 66 100 50z m-356 -73 c-1 -6 -2 -22 -2 -36 -2 -22 -6 -25 -42 -25 l-40 0
0 49 0 49 43 -13 c23 -7 42 -17 41 -24z m472 -56 c30 -119 -116 -211 -214
-136 l-24 17 41 27 c23 15 41 34 41 42 0 9 9 15 23 15 12 0 42 14 67 30 55 36
58 37 66 5z m-412 -231 c18 -26 18 -26 -2 -46 -16 -16 -27 -19 -60 -13 -36 6
-72 29 -61 39 10 9 85 45 94 45 6 0 18 -11 29 -25z"/>
<path d="M4073 4796 c-58 -19 -100 -47 -155 -103 -175 -179 -120 -482 110
-595 61 -30 74 -33 162 -33 88 0 101 3 162 33 235 115 287 421 103 605 -71 72
-141 101 -249 104 -57 2 -107 -2 -133 -11z m163 -162 c97 -46 97 -192 0 -238
-62 -29 -125 -14 -164 41 -33 46 -35 83 -10 133 37 72 105 97 174 64z m34
-309 c77 -27 171 -122 157 -159 -3 -8 -36 -29 -74 -48 -63 -31 -74 -33 -168
-33 -86 0 -107 4 -145 24 -54 28 -110 69 -110 80 0 21 86 102 132 125 61 30
141 35 208 11z"/>
<path d="M3085 3988 c-37 -21 -44 -41 -45 -125 0 -79 1 -82 31 -107 l31 -26
1073 0 c687 0 1083 4 1100 10 74 28 73 222 -1 250 -39 15 -2163 13 -2189 -2z
m2202 -30 c20 -19 23 -31 23 -93 0 -58 -4 -75 -20 -93 l-21 -22 -789 0 -790 0
0 115 0 115 787 0 787 0 23 -22z"/>
<path d="M3903 3553 c-7 -2 -13 -16 -13 -29 0 -14 4 -23 9 -20 5 4 12 0 14 -6
4 -9 8 -10 14 -2 10 12 56 14 64 2 3 -5 13 -6 22 -2 21 8 22 50 2 58 -21 8
-45 -3 -45 -20 0 -8 -4 -14 -10 -14 -5 0 -7 7 -4 15 4 8 2 15 -4 15 -6 0 -16
2 -24 4 -7 3 -19 2 -25 -1z"/>
<path d="M4063 3553 c-7 -2 -13 -16 -13 -29 0 -14 4 -23 9 -20 5 4 12 0 14 -6
4 -9 8 -10 14 -2 4 5 19 10 33 10 14 0 28 -5 33 -10 5 -8 9 -8 15 0 4 6 18 9
32 7 14 -2 32 -4 40 -4 8 0 26 2 40 4 14 2 29 -1 33 -7 6 -8 10 -7 14 2 2 6 9
10 14 6 5 -3 9 6 9 19 0 28 -18 38 -50 30 -13 -3 -19 -11 -16 -19 3 -8 1 -14
-4 -14 -6 0 -10 6 -10 14 0 8 -7 16 -15 20 -21 8 -45 -3 -45 -20 0 -8 -4 -14
-10 -14 -5 0 -10 6 -10 14 0 8 -7 17 -16 20 -19 7 -57 -11 -49 -25 4 -5 1 -9
-4 -9 -6 0 -11 6 -11 14 0 11 -24 29 -33 25 -1 0 -8 -3 -14 -6z"/>
<path d="M4378 3553 c-21 -5 -19 -42 3 -54 10 -5 24 -6 33 -3 16 6 18 45 1 56
-11 8 -11 8 -37 1z"/>
<path d="M4459 3553 c-24 -6 -21 -50 3 -56 11 -3 26 -3 33 -1 16 6 16 46 0 56
-11 8 -11 8 -36 1z"/>
<path d="M4535 3552 c-20 -13 -15 -50 7 -55 30 -8 48 2 48 28 0 29 -32 44 -55
27z"/>
<path d="M4619 3553 c-10 -3 -16 -14 -16 -28 0 -14 6 -25 16 -28 30 -6 49 4
49 28 0 24 -19 34 -49 28z"/>
<path d="M4699 3553 c-10 -2 -16 -14 -16 -29 0 -17 4 -24 13 -20 8 3 14 1 14
-3 0 -5 9 -7 19 -4 21 5 25 42 6 55 -11 8 -11 8 -36 1z"/>
<path d="M4775 3552 c-18 -12 -15 -51 4 -57 28 -9 50 4 48 28 -1 22 -14 37
-32 37 -5 0 -15 -4 -20 -8z"/>
<path d="M4859 3553 c-10 -3 -16 -14 -16 -28 0 -14 6 -25 16 -28 30 -6 49 4
49 28 0 24 -19 34 -49 28z"/>
<path d="M4935 3552 c-17 -11 -15 -50 1 -56 22 -9 49 9 51 33 1 12 -2 21 -7
21 -5 0 -14 2 -22 5 -7 3 -18 1 -23 -3z"/>
<path d="M5013 3553 c-18 -7 -16 -50 3 -57 22 -9 49 9 51 33 1 12 -2 21 -7 21
-5 0 -14 2 -22 4 -7 3 -19 2 -25 -1z"/>
<path d="M2660 3225 c-26 -32 13 -81 48 -59 34 22 22 74 -18 74 -10 0 -23 -7
-30 -15z"/>
<path d="M1105 5200 c46 -12 103 -12 85 0 -8 5 -37 9 -65 9 -44 -1 -46 -2 -20
-9z"/>
<path d="M1415 4673 c6 -5 66 -22 135 -37 69 -15 133 -30 143 -32 9 -3 17 -1
17 3 0 5 -57 22 -127 38 -174 38 -180 39 -168 28z"/>
<path d="M1410 4642 c0 -10 289 -77 297 -68 6 6 -36 17 -167 46 -52 11 -103
23 -112 26 -10 3 -18 1 -18 -4z"/>
<path d="M1401 4605 c6 -5 271 -65 289 -65 35 0 -10 15 -127 41 -121 27 -172
35 -162 24z"/>
<path d="M1400 4573 c0 -5 21 -32 48 -60 42 -46 52 -52 99 -57 38 -3 55 -1 63
10 7 8 18 14 25 14 6 0 20 9 29 19 17 18 14 20 -91 44 -161 37 -173 39 -173
30z"/>
<path d="M4094 1933 c1 -34 -2 -38 -26 -41 -24 -3 -28 1 -34 32 -4 27 -11 36
-26 36 -24 0 -96 -36 -125 -62 l-22 -21 24 -31 c20 -27 22 -33 10 -50 -13 -18
-15 -18 -50 4 l-35 22 -22 -49 c-12 -26 -22 -68 -22 -93 -1 -45 -1 -45 37 -48
32 -3 37 -7 37 -27 0 -20 -7 -25 -35 -31 -44 -8 -46 -30 -6 -99 44 -77 56 -84
89 -52 25 24 30 26 48 13 18 -14 18 -16 2 -44 -10 -17 -18 -35 -18 -40 0 -15
104 -52 145 -52 34 0 35 1 35 40 0 36 2 40 25 40 20 0 27 -6 32 -31 3 -17 12
-33 20 -36 19 -8 107 34 135 64 l22 23 -27 28 c-23 24 -24 29 -11 46 13 19 14
19 49 0 22 -11 38 -15 43 -9 17 19 42 96 42 129 0 31 -3 34 -40 40 -34 5 -40
10 -40 30 0 19 7 26 33 31 17 4 35 9 39 11 19 11 -63 164 -88 164 -8 0 -14 -4
-14 -9 0 -5 -10 -15 -23 -24 -19 -12 -26 -13 -41 -1 -18 13 -18 14 3 49 l21
36 -53 24 c-28 14 -70 25 -93 25 -40 0 -40 0 -40 -37z m49 -214 c57 -26 67
-108 17 -151 -42 -39 -92 -38 -131 1 -78 78 12 197 114 150z"/>
</g>
</svg>
